<?xml version="1.0" encoding="utf-8"?>
<!-- Generator: Adobe Illustrator 25.2.1, SVG Export Plug-In . SVG Version: 6.00 Build 0)  -->
<svg version="1.1" id="Layer_1" xmlns="http://www.w3.org/2000/svg" xmlns:xlink="http://www.w3.org/1999/xlink" x="0px" y="0px"
	 viewBox="0 0 16 16" style="enable-background:new 0 0 16 16;" xml:space="preserve">
<style type="text/css">
	.st0{fill:#FF3333;stroke:#FF3333;stroke-width:0.25;stroke-miterlimit:10;}
</style>
<g>
	<g>
		<path class="st0" d="M10.99,14.09c-0.04,0-0.08-0.01-0.11-0.04l-2.31-1.75c-0.59-0.03-1.18-0.12-1.75-0.26
			c-3.57-0.87-6.87-3.57-6-6.43c0.65-2.12,3.6-3.72,6.85-3.72c0.75,0,1.48,0.09,2.18,0.25c1.81,0.44,3.36,1.37,4.36,2.61
			c1.01,1.25,1.34,2.67,0.93,3.99c-0.38,1.25-1.39,2.28-2.83,2.91L11.14,14c-0.02,0.04-0.06,0.07-0.12,0.08
			C11.02,14.09,11,14.09,10.99,14.09z M7.68,2.21c-3.11,0-5.92,1.5-6.53,3.5c-0.64,2.09,1.38,5,5.76,6.06
			c0.57,0.14,1.16,0.22,1.74,0.25c0.04,0,0.07,0.01,0.1,0.04l2.18,1.65l1.11-2.2c0.02-0.03,0.04-0.06,0.08-0.07
			c1.38-0.59,2.35-1.57,2.71-2.75c0.38-1.24,0.07-2.57-0.88-3.74c-0.96-1.18-2.44-2.07-4.18-2.49C9.1,2.29,8.4,2.21,7.68,2.21z"/>
	</g>
	<g>
		<path class="st0" d="M8.35,6.31c0,0,0.26-1.65,1.94-1.62c1.68,0.03,2.36,3.04-2,5.54c-4.27-2.62-3.5-5.61-1.82-5.6
			C8.15,4.65,8.35,6.31,8.35,6.31z"/>
	</g>
	<g>
		<path class="st0" d="M3.25,9.66c-0.04,0-0.08-0.01-0.11-0.04C1.21,8.09,1.35,6.41,1.36,6.33C1.37,6.25,1.45,6.19,1.54,6.2
			C1.63,6.21,1.7,6.28,1.69,6.36c0,0.02-0.13,1.61,1.67,3.04c0.07,0.05,0.07,0.15,0.01,0.21C3.35,9.65,3.3,9.66,3.25,9.66z"/>
	</g>
	<g>
		<path class="st0" d="M5.38,10.89c-0.02,0-0.04,0-0.05-0.01c-0.78-0.23-1.33-0.71-1.36-0.73C3.9,10.09,3.9,10,3.96,9.94
			c0.06-0.06,0.17-0.06,0.24,0c0.01,0,0.52,0.45,1.23,0.66c0.09,0.03,0.13,0.11,0.11,0.19C5.51,10.85,5.45,10.89,5.38,10.89z"/>
	</g>
</g>
</svg>
